<svg width="19" height="17" viewBox="0 0 19 17" fill="none" xmlns="http://www.w3.org/2000/svg">
<path d="M12.9646 9.01515L11.7197 7.7702C11.8485 7.09764 11.6553 6.46801 11.1402 5.88131C10.625 5.29461 9.9596 5.06566 9.14394 5.19444L7.89899 3.94949C8.14226 3.83502 8.3891 3.74916 8.63952 3.69192C8.88994 3.63468 9.15825 3.60606 9.44444 3.60606C10.5177 3.60606 11.4299 3.98169 12.1812 4.73295C12.9325 5.48422 13.3081 6.39646 13.3081 7.4697C13.3081 7.75589 13.2795 8.0242 13.2222 8.27462C13.165 8.52504 13.0791 8.77189 12.9646 9.01515ZM15.7121 11.7197L14.4672 10.5177C15.0109 10.1027 15.4939 9.64836 15.916 9.15467C16.3382 8.66098 16.6995 8.09933 17 7.4697C16.2845 6.02441 15.2578 4.87605 13.9198 4.02462C12.5819 3.17319 11.0901 2.74747 9.44444 2.74747C9.02946 2.74747 8.62163 2.77609 8.22096 2.83333C7.82029 2.89057 7.42677 2.97643 7.0404 3.09091L5.7096 1.7601C6.2963 1.51684 6.89731 1.33439 7.51263 1.21275C8.12795 1.09112 8.77189 1.0303 9.44444 1.0303C11.6052 1.0303 13.5299 1.62774 15.2184 2.8226C16.907 4.01747 18.1305 5.5665 18.8889 7.4697C18.5598 8.31397 18.1269 9.09743 17.5903 9.82008C17.0537 10.5427 16.4276 11.1759 15.7121 11.7197ZM16.1414 17L12.5354 13.4369C12.0345 13.5943 11.5301 13.7123 11.0221 13.791C10.5141 13.8697 9.98822 13.9091 9.44444 13.9091C7.28367 13.9091 5.35901 13.3117 3.67045 12.1168C1.9819 10.9219 0.758418 9.3729 0 7.4697C0.300505 6.71128 0.679714 6.00652 1.13763 5.35543C1.59554 4.70434 2.11785 4.12121 2.70455 3.60606L0.343434 1.20202L1.54545 0L17.3434 15.798L16.1414 17ZM3.90657 4.80808C3.49158 5.18013 3.11237 5.58796 2.76894 6.03157C2.42551 6.47517 2.13215 6.95455 1.88889 7.4697C2.60438 8.91498 3.6311 10.0633 4.96907 10.9148C6.30703 11.7662 7.79882 12.1919 9.44444 12.1919C9.73064 12.1919 10.0097 12.174 10.2816 12.1383C10.5535 12.1025 10.8325 12.0631 11.1187 12.0202L10.346 11.2045C10.1886 11.2475 10.0383 11.2797 9.8952 11.3011C9.7521 11.3226 9.60185 11.3333 9.44444 11.3333C8.37121 11.3333 7.45896 10.9577 6.7077 10.2064C5.95644 9.45518 5.58081 8.54293 5.58081 7.4697C5.58081 7.31229 5.59154 7.16204 5.613 7.01894C5.63447 6.87584 5.66667 6.72559 5.7096 6.56818L3.90657 4.80808Z" fill="#D0C5AF"/>
</svg>
