<svg width="11" height="18" viewBox="0 0 11 18" fill="none" xmlns="http://www.w3.org/2000/svg">
<path d="M0.198234 18L0 16.3269L2.79912 8.61151C2.99735 8.79256 3.2088 8.94157 3.43347 9.05853C3.65813 9.17548 3.89601 9.267 4.14711 9.33308L1.43125 16.8185L0.198234 18ZM10.6255 18L9.39254 16.8185L6.67668 9.33308C6.92777 9.267 7.16565 9.17548 7.39032 9.05853C7.61498 8.94157 7.82643 8.79256 8.02467 8.61151L10.8238 16.3269L10.6255 18ZM5.41189 7.98899C4.62555 7.98899 3.9565 7.71311 3.40474 7.16135C2.85298 6.60959 2.5771 5.94054 2.5771 5.1542C2.5771 4.48415 2.77864 3.9053 3.18173 3.41764C3.58482 2.92997 4.0705 2.61279 4.63878 2.4661V0H6.185V2.4661C6.75328 2.61279 7.23897 2.92997 7.64205 3.41764C8.04514 3.9053 8.24668 4.48415 8.24668 5.1542C8.24668 5.94054 7.9708 6.60959 7.41904 7.16135C6.86728 7.71311 6.19823 7.98899 5.41189 7.98899ZM5.41189 6.44277C5.77005 6.44277 6.07435 6.31755 6.32479 6.0671C6.57524 5.81666 6.70046 5.51236 6.70046 5.1542C6.70046 4.79604 6.57524 4.49174 6.32479 4.2413C6.07435 3.99085 5.77005 3.86563 5.41189 3.86563C5.05374 3.86563 4.74944 3.99085 4.49899 4.2413C4.24855 4.49174 4.12332 4.79604 4.12332 5.1542C4.12332 5.51236 4.24855 5.81666 4.49899 6.0671C4.74944 6.31755 5.05374 6.44277 5.41189 6.44277Z" fill="#D0C5AF"/>
</svg>
