<svg width="14" height="18" viewBox="0 0 14 18" fill="none" xmlns="http://www.w3.org/2000/svg">
<path d="M0 18V1.94259C0 1.39977 0.188059 0.940295 0.564177 0.564177C0.940295 0.188059 1.39977 0 1.94259 0H12.0276C12.5704 0 13.0299 0.188059 13.406 0.564177C13.7821 0.940295 13.9701 1.39977 13.9701 1.94259V18L6.98507 15.0034L0 18ZM1.61191 15.5284L6.98507 13.2179L12.3582 15.5284V1.94259C12.3582 1.85992 12.3238 1.78414 12.2549 1.71525C12.186 1.64636 12.1102 1.61191 12.0276 1.61191H1.94259C1.85992 1.61191 1.78414 1.64636 1.71525 1.71525C1.64636 1.78414 1.61191 1.85992 1.61191 1.94259V15.5284ZM1.61191 1.61191C1.61191 1.61191 1.64636 1.61191 1.71525 1.61191C1.78414 1.61191 1.85992 1.61191 1.94259 1.61191H12.0276C12.1102 1.61191 12.186 1.61191 12.2549 1.61191C12.3238 1.61191 12.3582 1.61191 12.3582 1.61191H6.98507H1.61191Z" fill="#F2CA50"/>
</svg>
