<svg width="18" height="17" viewBox="0 0 18 17" fill="none" xmlns="http://www.w3.org/2000/svg">
<path d="M1.05382 17C0.814086 16.9397 0.593578 16.809 0.3923 16.6077C0.191023 16.4064 0.0602562 16.1859 0 15.9462L15.9462 0C16.2064 0.0705121 16.4295 0.201279 16.6154 0.3923C16.8013 0.583322 16.9346 0.80383 17.0154 1.05382L1.05382 17ZM0 10.6134V8.50577L8.50577 0H10.6134L0 10.6134ZM0 3.17303V1.80768C0 1.30256 0.174999 0.874996 0.524997 0.524997C0.874996 0.174999 1.30256 0 1.80768 0H3.17303L0 3.17303ZM13.827 17L17 13.827V15.1923C17 15.6974 16.825 16.125 16.475 16.475C16.125 16.825 15.6974 17 15.1923 17H13.827ZM6.38657 17L17 6.38657V8.49422L8.49422 17H6.38657Z" fill="#D0C5AF"/>
</svg>
