<svg width="13" height="17" viewBox="0 0 13 17" fill="none" xmlns="http://www.w3.org/2000/svg">
<path d="M0 16.75V1.80769C0 1.30256 0.174999 0.874996 0.524998 0.524998C0.874996 0.174999 1.30256 0 1.80769 0H11.1923C11.6974 0 12.125 0.174999 12.475 0.524998C12.825 0.874996 13 1.30256 13 1.80769V16.75L6.49999 13.9615L0 16.75ZM1.49997 14.45L6.49999 12.3L11.5 14.45V1.80769C11.5 1.73076 11.468 1.66024 11.4039 1.59613C11.3397 1.53202 11.2692 1.49997 11.1923 1.49997H1.80769C1.73076 1.49997 1.66024 1.53202 1.59613 1.59613C1.53202 1.66024 1.49997 1.73076 1.49997 1.80769V14.45ZM1.49997 1.49997C1.49997 1.49997 1.53202 1.49997 1.59613 1.49997C1.66024 1.49997 1.73076 1.49997 1.80769 1.49997H11.1923C11.2692 1.49997 11.3397 1.49997 11.4039 1.49997C11.468 1.49997 11.5 1.49997 11.5 1.49997H6.49999H1.49997Z" fill="#F2CA50"/>
</svg>
