<svg width="19" height="19" viewBox="0 0 19 19" fill="none" xmlns="http://www.w3.org/2000/svg">
<path d="M9.50167 19C8.18773 19 6.95269 18.7507 5.79655 18.252C4.64041 17.7533 3.63472 17.0766 2.77949 16.2217C1.92426 15.3669 1.24721 14.3616 0.748325 13.206C0.249442 12.0504 0 10.8156 0 9.50167C0 8.18773 0.249331 6.95269 0.747993 5.79655C1.24665 4.64041 1.92341 3.63472 2.77826 2.77949C3.63311 1.92427 4.63835 1.24721 5.79398 0.748325C6.94961 0.249442 8.18439 0 9.49832 0C10.8123 0 12.0473 0.249331 13.2034 0.747993C14.3596 1.24665 15.3653 1.92341 16.2205 2.77826C17.0757 3.63311 17.7528 4.63835 18.2517 5.79398C18.7505 6.94961 19 8.18439 19 9.49832C19 10.8123 18.7507 12.0473 18.252 13.2034C17.7533 14.3596 17.0766 15.3653 16.2217 16.2205C15.3669 17.0757 14.3616 17.7528 13.206 18.2517C12.0504 18.7505 10.8156 19 9.50167 19ZM9.49999 17.5C11.7333 17.5 13.625 16.725 15.175 15.175C16.725 13.625 17.5 11.7333 17.5 9.49999C17.5 7.26665 16.725 5.37498 15.175 3.82498C13.625 2.27497 11.7333 1.49997 9.49999 1.49997C7.26665 1.49997 5.37498 2.27497 3.82498 3.82498C2.27497 5.37498 1.49997 7.26665 1.49997 9.49999C1.49997 11.7333 2.27497 13.625 3.82498 15.175C5.37498 16.725 7.26665 17.5 9.49999 17.5Z" fill="#D0C5AF"/>
</svg>
