<svg width="12" height="12" viewBox="0 0 12 12" fill="none" xmlns="http://www.w3.org/2000/svg">
<path d="M5.15996 8.75994L9.38993 4.52997L8.54994 3.68997L5.15996 7.07995L3.44998 5.36996L2.60998 6.20996L5.15996 8.75994ZM5.99996 11.9999C5.16996 11.9999 4.38997 11.8424 3.65997 11.5274C2.92998 11.2124 2.29498 10.7849 1.75499 10.2449C1.21499 9.70493 0.787495 9.06994 0.472497 8.33994C0.157499 7.60995 0 6.82995 0 5.99996C0 5.16996 0.157499 4.38997 0.472497 3.65997C0.787495 2.92998 1.21499 2.29498 1.75499 1.75499C2.29498 1.21499 2.92998 0.787495 3.65997 0.472497C4.38997 0.157499 5.16996 0 5.99996 0C6.82995 0 7.60995 0.157499 8.33994 0.472497C9.06994 0.787495 9.70493 1.21499 10.2449 1.75499C10.7849 2.29498 11.2124 2.92998 11.5274 3.65997C11.8424 4.38997 11.9999 5.16996 11.9999 5.99996C11.9999 6.82995 11.8424 7.60995 11.5274 8.33994C11.2124 9.06994 10.7849 9.70493 10.2449 10.2449C9.70493 10.7849 9.06994 11.2124 8.33994 11.5274C7.60995 11.8424 6.82995 11.9999 5.99996 11.9999ZM5.99996 10.7999C7.33995 10.7999 8.47494 10.3349 9.40493 9.40493C10.3349 8.47494 10.7999 7.33995 10.7999 5.99996C10.7999 4.65997 10.3349 3.52498 9.40493 2.59498C8.47494 1.66499 7.33995 1.19999 5.99996 1.19999C4.65997 1.19999 3.52498 1.66499 2.59498 2.59498C1.66499 3.52498 1.19999 4.65997 1.19999 5.99996C1.19999 7.33995 1.66499 8.47494 2.59498 9.40493C3.52498 10.3349 4.65997 10.7999 5.99996 10.7999Z" fill="#D0C5AF"/>
</svg>
