<svg width="13" height="10" viewBox="0 0 13 10" fill="none" xmlns="http://www.w3.org/2000/svg">
<path d="M2.95456 9.45461C2.46214 9.45461 2.04357 9.28226 1.69887 8.93756C1.35418 8.59286 1.18183 8.17429 1.18183 7.68187H0V1.18183C0 0.856824 0.11572 0.578602 0.347161 0.347161C0.578602 0.11572 0.856824 0 1.18183 0H9.45461V2.36365H11.2273L13.0001 4.7273V7.68187H11.8183C11.8183 8.17429 11.6459 8.59286 11.3012 8.93756C10.9565 9.28226 10.5379 9.45461 10.0455 9.45461C9.55309 9.45461 9.13453 9.28226 8.78983 8.93756C8.44513 8.59286 8.27278 8.17429 8.27278 7.68187H4.7273C4.7273 8.17429 4.55495 8.59286 4.21025 8.93756C3.86555 9.28226 3.44699 9.45461 2.95456 9.45461ZM2.95456 8.27278C3.12199 8.27278 3.26233 8.21615 3.37559 8.10289C3.48885 7.98963 3.54548 7.84929 3.54548 7.68187C3.54548 7.51444 3.48885 7.3741 3.37559 7.26084C3.26233 7.14758 3.12199 7.09095 2.95456 7.09095C2.78714 7.09095 2.6468 7.14758 2.53354 7.26084C2.42028 7.3741 2.36365 7.51444 2.36365 7.68187C2.36365 7.84929 2.42028 7.98963 2.53354 8.10289C2.6468 8.21615 2.78714 8.27278 2.95456 8.27278ZM10.0455 8.27278C10.2129 8.27278 10.3533 8.21615 10.4665 8.10289C10.5798 7.98963 10.6364 7.84929 10.6364 7.68187C10.6364 7.51444 10.5798 7.3741 10.4665 7.26084C10.3533 7.14758 10.2129 7.09095 10.0455 7.09095C9.87809 7.09095 9.73775 7.14758 9.62449 7.26084C9.51123 7.3741 9.45461 7.51444 9.45461 7.68187C9.45461 7.84929 9.51123 7.98963 9.62449 8.10289C9.73775 8.21615 9.87809 8.27278 10.0455 8.27278ZM9.45461 5.31822H11.966L10.6364 3.54548H9.45461V5.31822Z" fill="#F2CA50"/>
</svg>
