<svg width="17" height="15" viewBox="0 0 17 15" fill="none" xmlns="http://www.w3.org/2000/svg">
<path d="M15.8724 6.70833V13.3333C15.8724 13.7917 15.7093 14.184 15.3829 14.5104C15.0565 14.8368 14.6641 15 14.2058 15H2.53912C2.08078 15 1.68842 14.8368 1.36203 14.5104C1.03564 14.184 0.872449 13.7917 0.872449 13.3333V6.70833C0.553005 6.41667 0.306477 6.04167 0.132866 5.58333C-0.0407455 5.125 -0.0442177 4.625 0.122449 4.08333L0.997449 1.25C1.10856 0.888889 1.30648 0.590278 1.5912 0.354167C1.87592 0.118056 2.20578 0 2.58078 0H14.1641C14.5391 0 14.8655 0.114583 15.1433 0.34375C15.4211 0.572917 15.6224 0.875 15.7474 1.25L16.6224 4.08333C16.7891 4.625 16.7856 5.11806 16.612 5.5625C16.4384 6.00694 16.1919 6.38889 15.8724 6.70833ZM10.2058 5.83333C10.5808 5.83333 10.8655 5.70486 11.0599 5.44792C11.2544 5.19097 11.3308 4.90278 11.2891 4.58333L10.8308 1.66667H9.20578V4.75C9.20578 5.04167 9.303 5.29514 9.49745 5.51042C9.69189 5.72569 9.928 5.83333 10.2058 5.83333ZM6.45578 5.83333C6.77523 5.83333 7.03564 5.72569 7.23703 5.51042C7.43842 5.29514 7.53912 5.04167 7.53912 4.75V1.66667H5.91412L5.45578 4.58333C5.40023 4.91667 5.47314 5.20833 5.67453 5.45833C5.87592 5.70833 6.13634 5.83333 6.45578 5.83333ZM2.74745 5.83333C2.99745 5.83333 3.2162 5.74306 3.4037 5.5625C3.5912 5.38194 3.70578 5.15278 3.74745 4.875L4.20578 1.66667H2.58078L1.74745 4.45833C1.66412 4.73611 1.70925 5.03472 1.88287 5.35417C2.05648 5.67361 2.34467 5.83333 2.74745 5.83333ZM13.9974 5.83333C14.4002 5.83333 14.6919 5.67361 14.8724 5.35417C15.053 5.03472 15.0947 4.73611 14.9974 4.45833L14.1224 1.66667H12.5391L12.9974 4.875C13.0391 5.15278 13.1537 5.38194 13.3412 5.5625C13.5287 5.74306 13.7474 5.83333 13.9974 5.83333ZM2.53912 13.3333H14.2058V7.45833C14.1363 7.48611 14.0912 7.5 14.0704 7.5C14.0495 7.5 14.0252 7.5 13.9974 7.5C13.6224 7.5 13.2926 7.4375 13.0079 7.3125C12.7231 7.1875 12.4419 6.98611 12.1641 6.70833C11.9141 6.95833 11.6294 7.15278 11.3099 7.29167C10.9905 7.43056 10.6502 7.5 10.2891 7.5C9.91412 7.5 9.56342 7.43056 9.23703 7.29167C8.91064 7.15278 8.62245 6.95833 8.37245 6.70833C8.13634 6.95833 7.86203 7.15278 7.54953 7.29167C7.23703 7.43056 6.90023 7.5 6.53912 7.5C6.13634 7.5 5.77175 7.43056 5.44537 7.29167C5.11898 7.15278 4.83078 6.95833 4.58078 6.70833C4.28912 7 4.00092 7.20486 3.7162 7.32292C3.43148 7.44097 3.10856 7.5 2.74745 7.5C2.71967 7.5 2.68842 7.5 2.6537 7.5C2.61898 7.5 2.58078 7.48611 2.53912 7.45833V13.3333ZM14.2058 13.3333H2.53912C2.58078 13.3333 2.61898 13.3333 2.6537 13.3333C2.68842 13.3333 2.71967 13.3333 2.74745 13.3333C3.10856 13.3333 3.43148 13.3333 3.7162 13.3333C4.00092 13.3333 4.28912 13.3333 4.58078 13.3333C4.70578 13.3333 4.8412 13.3333 4.98703 13.3333C5.13287 13.3333 5.28912 13.3333 5.45578 13.3333C5.62245 13.3333 5.79606 13.3333 5.97662 13.3333C6.15717 13.3333 6.34467 13.3333 6.53912 13.3333C6.71967 13.3333 6.89328 13.3333 7.05995 13.3333C7.22662 13.3333 7.38981 13.3333 7.54953 13.3333C7.70925 13.3333 7.85856 13.3333 7.99745 13.3333C8.13634 13.3333 8.26134 13.3333 8.37245 13.3333C8.62245 13.3333 8.91064 13.3333 9.23703 13.3333C9.56342 13.3333 9.91412 13.3333 10.2891 13.3333C10.4697 13.3333 10.6433 13.3333 10.8099 13.3333C10.9766 13.3333 11.1398 13.3333 11.2995 13.3333C11.4593 13.3333 11.612 13.3333 11.7579 13.3333C11.9037 13.3333 12.0391 13.3333 12.1641 13.3333C12.4419 13.3333 12.7231 13.3333 13.0079 13.3333C13.2926 13.3333 13.6224 13.3333 13.9974 13.3333C14.0252 13.3333 14.0495 13.3333 14.0704 13.3333C14.0912 13.3333 14.1363 13.3333 14.2058 13.3333Z" fill="#D0C5AF"/>
</svg>
