<svg width="10" height="12" viewBox="0 0 10 12" fill="none" xmlns="http://www.w3.org/2000/svg">
<path d="M4.8 6.00001C5.13 6.00001 5.4125 5.88251 5.6475 5.6475C5.88251 5.4125 6.00001 5.13 6.00001 4.8C6.00001 4.47 5.88251 4.1875 5.6475 3.9525C5.4125 3.7175 5.13 3.6 4.8 3.6C4.47 3.6 4.1875 3.7175 3.9525 3.9525C3.7175 4.1875 3.6 4.47 3.6 4.8C3.6 5.13 3.7175 5.4125 3.9525 5.6475C4.1875 5.88251 4.47 6.00001 4.8 6.00001ZM4.8 10.41C6.02 9.29001 6.92501 8.27251 7.51501 7.35751C8.10501 6.44251 8.40001 5.63 8.40001 4.92C8.40001 3.83 8.05251 2.9375 7.35751 2.2425C6.66251 1.5475 5.81001 1.2 4.8 1.2C3.79 1.2 2.9375 1.5475 2.2425 2.2425C1.5475 2.9375 1.2 3.83 1.2 4.92C1.2 5.63 1.495 6.44251 2.085 7.35751C2.675 8.27251 3.58 9.29001 4.8 10.41ZM4.8 12C3.19 10.63 1.9875 9.35751 1.1925 8.18251C0.3975 7.00751 0 5.92001 0 4.92C0 3.42 0.4825 2.225 1.4475 1.335C2.4125 0.445 3.53 0 4.8 0C6.07001 0 7.18751 0.445 8.15251 1.335C9.11751 2.225 9.60001 3.42 9.60001 4.92C9.60001 5.92001 9.20251 7.00751 8.40751 8.18251C7.61251 9.35751 6.41001 10.63 4.8 12Z" fill="#F2CA50"/>
</svg>
