<svg width="39" height="30" viewBox="0 0 39 30" fill="none" xmlns="http://www.w3.org/2000/svg">
<path d="M1.49997 30C1.07498 30 0.718736 29.857 0.431241 29.571C0.143747 29.2849 0 28.9305 0 28.5077C0 28.259 0.0506401 28.0277 0.15192 27.8137C0.253201 27.5997 0.405121 27.4298 0.607681 27.3039L17.5 14.7308V11.1923C17.5 10.7673 17.6494 10.4111 17.9481 10.1236C18.2468 9.83608 18.6077 9.69233 19.0308 9.69233C19.9539 9.69233 20.7404 9.36013 21.3904 8.69572C22.0404 8.03131 22.3654 7.23771 22.3654 6.31492C22.3654 5.39213 22.0408 4.60894 21.3915 3.96534C20.7421 3.32174 19.9537 2.99994 19.026 2.99994C18.0984 2.99994 17.3045 3.3234 16.6442 3.97031C15.984 4.61722 15.6538 5.40275 15.6538 6.3269H12.6539C12.6539 4.57306 13.2731 3.08012 14.5116 1.84807C15.75 0.616024 17.2526 0 19.0193 0C20.7859 0 22.2853 0.610896 23.5173 1.83269C24.7494 3.05448 25.3654 4.54871 25.3654 6.31537C25.3654 7.80511 24.9135 9.11858 24.0096 10.2558C23.1058 11.3929 21.9359 12.1372 20.5 12.4884V14.7308L37.4116 27.3039C37.6141 27.4287 37.7661 27.5972 37.8673 27.8093C37.9686 28.0215 38.0193 28.2524 38.0193 28.502C38.0193 28.9263 37.8755 29.2821 37.588 29.5692C37.3005 29.8564 36.9443 30 36.5193 30H1.49997ZM6.03835 27.0001H31.9809L19 17.3653L6.03835 27.0001Z" fill="#F2CA50"/>
</svg>
