<svg width="24" height="25" viewBox="0 0 24 25" fill="none" xmlns="http://www.w3.org/2000/svg">
<path d="M12.5 10.9375V14.2227H20.3525C20.1122 16.0657 19.4431 17.3798 18.4215 18.4054C17.3958 19.4311 15.8173 20.5529 12.5 20.5529C7.10737 20.5529 2.82852 16.1859 2.82852 10.7933C2.82852 5.40064 7.10737 1.03365 12.5 1.03365C15.4327 1.03365 17.6282 2.1875 19.391 3.85416L21.6987 1.54647C19.7516 1.51442 16.9471 0 12.5 0C5.72115 0 0 5.72115 0 12.5C0 19.2788 5.72115 25 12.5 25C16.1058 25 18.8301 23.8061 20.9535 21.5945C23.141 19.407 23.8301 16.3221 23.8301 13.9022C23.8301 13.1651 23.766 12.476 23.6458 11.8349H12.492L12.5 10.9375Z" fill="#E5E2E1"/>
</svg>
