<svg width="18" height="15" viewBox="0 0 18 15" fill="none" xmlns="http://www.w3.org/2000/svg">
<path d="M6.43945 5.66167C5.4905 5.66167 4.02203 4.58259 4.02203 2.83083C4.02203 1.07908 5.4905 0 6.43945 0C7.3884 0 8.85687 1.07908 8.85687 2.83083C8.85687 4.58259 7.3884 5.66167 6.43945 5.66167ZM16.96 12.8869C16.4975 12.5716 16.1442 12.1682 15.9289 11.7007C15.7157 11.2332 15.6086 10.6877 15.6086 10.0691C15.6086 9.32834 15.7568 8.71472 16.0521 8.22724C16.3484 7.74075 16.7327 7.35837 17.2082 7.08209C16.8008 6.45146 16.2232 5.96097 15.4785 5.61262C14.7327 5.26427 13.8799 5.0901 12.9229 5.0901C11.9319 5.0901 11.0761 5.25326 10.3554 5.58059C9.63464 5.90791 9.05406 6.31132 8.61362 6.7918C8.25326 6.31132 7.70772 5.90791 6.97698 5.58059C6.24625 5.25326 5.42543 5.0901 4.51452 5.0901C3.54355 5.0901 2.65966 5.26427 1.86186 5.61362C1.06407 5.96197 0.443444 6.45246 0 7.08309C0.452453 7.35937 0.822824 7.74175 1.11111 8.22824C1.3994 8.71572 1.54355 9.32934 1.54355 10.0701C1.54355 10.6887 1.43544 11.2342 1.22122 11.7017C1.00601 12.1692 0.652653 12.5726 0.16016 12.9129C0.520521 13.5436 1.04304 14.0491 1.72773 14.4294C2.41141 14.8098 3.21722 15 4.14515 15C5.02603 15 5.7898 14.8399 6.43744 14.5195C7.08509 14.1992 7.62563 13.8038 8.05907 13.3333C8.50952 13.8038 9.04806 14.1992 9.67368 14.5195C10.2993 14.8399 11.0751 15 12.001 15C12.9119 15 13.7027 14.8098 14.3734 14.4294C15.0441 14.0491 15.5546 13.5436 15.9049 12.9129L16.96 12.8869Z" fill="#E5E2E1"/>
</svg>
