<svg width="12" height="12" viewBox="0 0 12 12" fill="none" xmlns="http://www.w3.org/2000/svg">
<path d="M5.70413 9.4312L6.88695 9.32772L6.61346 6.20171L8.38665 4.0885L7.46786 3.31755L5.38629 5.79827L5.70413 9.4312ZM2.14511 10.5939C1.50962 10.0607 1.01359 9.43896 0.657041 8.72878C0.300488 8.0186 0.0889501 7.28332 0.0224256 6.52294C-0.044099 5.76256 0.0365465 5.00172 0.264362 4.24041C0.492177 3.47911 0.872706 2.78071 1.40595 2.14522C1.93919 1.50973 2.5609 1.0137 3.27108 0.657153C3.98126 0.3006 4.71654 0.0890617 5.47692 0.0225375C6.2373 -0.043987 6.99814 0.0366587 7.75945 0.264474C8.52075 0.492289 9.21915 0.872818 9.85464 1.40606C10.4901 1.9393 10.9862 2.56101 11.3427 3.27119C11.6993 3.98137 11.9108 4.71665 11.9773 5.47703C12.0438 6.23741 11.9632 6.99825 11.7354 7.75956C11.5076 8.52086 11.127 9.21926 10.5938 9.85475C10.0606 10.4902 9.43885 10.9863 8.72867 11.3428C8.01849 11.6994 7.28321 11.9109 6.52283 11.9774C5.76245 12.044 5.00161 11.9633 4.2403 11.7355C3.479 11.5077 2.7806 11.1272 2.14511 10.5939ZM2.91606 9.67513C3.93438 10.5296 5.10184 10.8992 6.41842 10.7841C7.73501 10.6689 8.82054 10.1021 9.67501 9.0838C10.5295 8.06548 10.8991 6.89802 10.7839 5.58144C10.6688 4.26485 10.102 3.17932 9.08369 2.32485C8.06537 1.47037 6.89791 1.10073 5.58132 1.21592C4.26474 1.3311 3.17921 1.89785 2.32473 2.91617C1.47026 3.93449 1.10062 5.10195 1.2158 6.41853C1.33099 7.73512 1.89774 8.82065 2.91606 9.67513Z" fill="#F2CA50"/>
</svg>
