<svg width="67" height="40" viewBox="0 0 67 40" fill="none" xmlns="http://www.w3.org/2000/svg">
<path d="M6.66667 40C4.83333 40 3.26389 39.3472 1.95833 38.0417C0.652778 36.7361 0 35.1667 0 33.3333V6.66667C0 4.83333 0.652778 3.26389 1.95833 1.95833C3.26389 0.652778 4.83333 0 6.66667 0H60C61.8333 0 63.4028 0.652778 64.7083 1.95833C66.0139 3.26389 66.6667 4.83333 66.6667 6.66667V33.3333C66.6667 35.1667 66.0139 36.7361 64.7083 38.0417C63.4028 39.3472 61.8333 40 60 40H6.66667ZM6.66667 33.3333H60V6.66667H50V20H43.3333V6.66667H36.6667V20H30V6.66667H23.3333V20H16.6667V6.66667H6.66667V33.3333ZM16.6667 20H23.3333H16.6667ZM30 20H36.6667H30ZM43.3333 20H50H43.3333Z" fill="#E5E2E1"/>
</svg>
