<svg width="12" height="12" viewBox="0 0 12 12" fill="none" xmlns="http://www.w3.org/2000/svg">
<path d="M5.17113 9.34263L6.35555 9.42546L6.57444 6.29521L8.65633 4.48545L7.86948 3.58027L5.42551 5.70478L5.17113 9.34263ZM1.47411 9.93426C0.929873 9.30819 0.537223 8.61655 0.296161 7.85935C0.0550988 7.10216 -0.0388101 6.34285 0.0144331 5.58144C0.0676761 4.82003 0.266346 4.08119 0.610444 3.36491C0.954541 2.64863 1.43963 2.01837 2.06571 1.47413C2.69178 0.929893 3.38342 0.537241 4.14062 0.29618C4.89781 0.0551181 5.65711 -0.0387912 6.41853 0.0144522C7.17994 0.0676954 7.91878 0.266366 8.63506 0.610463C9.35134 0.95456 9.9816 1.43965 10.5258 2.06573C11.0701 2.6918 11.4627 3.38344 11.7038 4.14063C11.9449 4.89783 12.0388 5.65713 11.9855 6.41855C11.9323 7.17996 11.7336 7.9188 11.3895 8.63508C11.0454 9.35135 10.5603 9.98161 9.93424 10.5259C9.30817 11.0701 8.61653 11.4627 7.85933 11.7038C7.10214 11.9449 6.34283 12.0388 5.58142 11.9855C4.82001 11.9323 4.08117 11.7336 3.36489 11.3895C2.64861 11.0454 2.01835 10.5603 1.47411 9.93426ZM2.37929 9.14741C3.25138 10.1506 4.34661 10.6984 5.66499 10.7905C6.98336 10.8827 8.14416 10.4928 9.14739 9.62068C10.1506 8.74859 10.6983 7.65335 10.7905 6.33498C10.8827 5.01661 10.4928 3.85581 9.62066 2.85258C8.74857 1.84935 7.65333 1.30164 6.33496 1.20945C5.01659 1.11726 3.85579 1.50721 2.85256 2.37931C1.84933 3.2514 1.30162 4.34663 1.20943 5.665C1.11724 6.98337 1.50719 8.14418 2.37929 9.14741Z" fill="#F2CA50"/>
</svg>
