<svg width="25" height="15" viewBox="0 0 25 15" fill="none" xmlns="http://www.w3.org/2000/svg">
<path d="M2.5 15C1.8125 15 1.22396 14.7552 0.734375 14.2656C0.244792 13.776 0 13.1875 0 12.5V2.5C0 1.8125 0.244792 1.22396 0.734375 0.734375C1.22396 0.244792 1.8125 0 2.5 0H22.5C23.1875 0 23.776 0.244792 24.2656 0.734375C24.7552 1.22396 25 1.8125 25 2.5V12.5C25 13.1875 24.7552 13.776 24.2656 14.2656C23.776 14.7552 23.1875 15 22.5 15H2.5ZM2.5 12.5H22.5V2.5H18.75V7.5H16.25V2.5H13.75V7.5H11.25V2.5H8.75V7.5H6.25V2.5H2.5V12.5ZM6.25 7.5H8.75H6.25ZM11.25 7.5H13.75H11.25ZM16.25 7.5H18.75H16.25Z" fill="#F2CA50"/>
</svg>
