<svg width="20" height="16" viewBox="0 0 20 16" fill="none" xmlns="http://www.w3.org/2000/svg">
<path d="M18 5V2H15V0H18C18.55 0 19.0208 0.195833 19.4125 0.5875C19.8042 0.979167 20 1.45 20 2V5H18ZM0 5V2C0 1.45 0.195833 0.979167 0.5875 0.5875C0.979167 0.195833 1.45 0 2 0H5V2H2V5H0ZM15 16V14H18V11H20V14C20 14.55 19.8042 15.0208 19.4125 15.4125C19.0208 15.8042 18.55 16 18 16H15ZM2 16C1.45 16 0.979167 15.8042 0.5875 15.4125C0.195833 15.0208 0 14.55 0 14V11H2V14H5V16H2ZM4 12V4H16V12H4ZM6 10H14V6H6V10ZM6 10V6V10Z" fill="#F2CA50" fill-opacity="0.7"/>
</svg>
