<svg width="17" height="22" viewBox="0 0 17 22" fill="none" xmlns="http://www.w3.org/2000/svg">
<path d="M8 11V1C8 0.716667 8.09583 0.479167 8.2875 0.2875C8.47917 0.0958333 8.71667 0 9 0C9.28333 0 9.52083 0.0958333 9.7125 0.2875C9.90417 0.479167 10 0.716667 10 1V11H8ZM4 11V2C4 1.71667 4.09583 1.47917 4.2875 1.2875C4.47917 1.09583 4.71667 1 5 1C5.28333 1 5.52083 1.09583 5.7125 1.2875C5.90417 1.47917 6 1.71667 6 2V11H4ZM8.5 22C6.13333 22 4.125 21.175 2.475 19.525C0.825 17.875 0 15.8667 0 13.5V4C0 3.71667 0.0958333 3.47917 0.2875 3.2875C0.479167 3.09583 0.716667 3 1 3C1.28333 3 1.52083 3.09583 1.7125 3.2875C1.90417 3.47917 2 3.71667 2 4V13.5C2 15.3167 2.62917 16.8542 3.8875 18.1125C5.14583 19.3708 6.68333 20 8.5 20C10.3167 20 11.8542 19.3708 13.1125 18.1125C14.3708 16.8542 15 15.3167 15 13.5V10C14.7167 10 14.4792 10.0958 14.2875 10.2875C14.0958 10.4792 14 10.7167 14 11V15H11C10.45 15 9.97917 15.1958 9.5875 15.5875C9.19583 15.9792 9 16.45 9 17V18H7V17C7 15.9 7.39167 14.9583 8.175 14.175C8.95833 13.3917 9.9 13 11 13H12V10.15V3C12 2.71667 12.0958 2.47917 12.2875 2.2875C12.4792 2.09583 12.7167 2 13 2C13.2833 2 13.5208 2.09583 13.7125 2.2875C13.9042 2.47917 14 2.71667 14 3V8.175C14.1667 8.125 14.3292 8.08333 14.4875 8.05C14.6458 8.01667 14.8167 8 15 8H17V13.5C17 15.8667 16.175 17.875 14.525 19.525C12.875 21.175 10.8667 22 8.5 22Z" fill="#F2CA50" fill-opacity="0.7"/>
</svg>
