<svg width="6" height="16" viewBox="0 0 6 16" fill="none" xmlns="http://www.w3.org/2000/svg">
<path d="M3 3.5C2.51667 3.5 2.10417 3.32917 1.7625 2.9875C1.42083 2.64583 1.25 2.23333 1.25 1.75C1.25 1.26667 1.42083 0.854167 1.7625 0.5125C2.10417 0.170833 2.51667 0 3 0C3.48333 0 3.89583 0.170833 4.2375 0.5125C4.57917 0.854167 4.75 1.26667 4.75 1.75C4.75 2.23333 4.57917 2.64583 4.2375 2.9875C3.89583 3.32917 3.48333 3.5 3 3.5ZM1 16V11H0V6.5C0 5.95 0.195833 5.47917 0.5875 5.0875C0.979167 4.69583 1.45 4.5 2 4.5H4C4.55 4.5 5.02083 4.69583 5.4125 5.0875C5.80417 5.47917 6 5.95 6 6.5V11H5V16H1Z" fill="#F2CA50" fill-opacity="0.7"/>
</svg>
