<svg width="16" height="16" viewBox="0 0 16 16" fill="none" xmlns="http://www.w3.org/2000/svg">
<path d="M7.9999 7.9999C6.89991 7.9999 5.95826 7.60824 5.17493 6.82491C4.39161 6.04159 3.99995 5.09993 3.99995 3.99995C3.99995 2.89996 4.39161 1.95831 5.17493 1.17498C5.95826 0.391662 6.89991 0 7.9999 0C9.09988 0 10.0415 0.391662 10.8249 1.17498C11.6082 1.95831 11.9998 2.89996 11.9998 3.99995C11.9998 5.09993 11.6082 6.04159 10.8249 6.82491C10.0415 7.60824 9.09988 7.9999 7.9999 7.9999ZM0 15.9998V13.1998C0 12.6332 0.145831 12.1123 0.437494 11.6374C0.729157 11.1624 1.11665 10.7999 1.59998 10.5499C2.6333 10.0332 3.68329 9.64571 4.74994 9.38738C5.81659 9.12905 6.89991 8.99988 7.9999 8.99988C9.09988 8.99988 10.1832 9.12905 11.2499 9.38738C12.3165 9.64571 13.3665 10.0332 14.3998 10.5499C14.8831 10.7999 15.2706 11.1624 15.5623 11.6374C15.854 12.1123 15.9998 12.6332 15.9998 13.1998V15.9998H0ZM1.99997 13.9998H13.9998V13.1998C13.9998 13.0165 13.954 12.8498 13.8623 12.6998C13.7707 12.5498 13.6498 12.4332 13.4998 12.3498C12.5998 11.8998 11.6915 11.5624 10.7749 11.3374C9.85821 11.1124 8.93322 10.9999 7.9999 10.9999C7.06658 10.9999 6.14159 11.1124 5.22493 11.3374C4.30828 11.5624 3.39996 11.8998 2.49997 12.3498C2.34997 12.4332 2.22914 12.5498 2.13747 12.6998C2.04581 12.8498 1.99997 13.0165 1.99997 13.1998V13.9998ZM7.9999 5.99992C8.54989 5.99992 9.02072 5.80409 9.41238 5.41243C9.80404 5.02077 9.99987 4.54994 9.99987 3.99995C9.99987 3.44996 9.80404 2.97913 9.41238 2.58747C9.02072 2.19581 8.54989 1.99997 7.9999 1.99997C7.4499 1.99997 6.97908 2.19581 6.58742 2.58747C6.19575 2.97913 5.99992 3.44996 5.99992 3.99995C5.99992 4.54994 6.19575 5.02077 6.58742 5.41243C6.97908 5.80409 7.4499 5.99992 7.9999 5.99992Z" fill="#99907C"/>
</svg>
