<svg width="122" height="347" viewBox="0 0 122 347" fill="none" xmlns="http://www.w3.org/2000/svg">
<path d="M30.5883 15.5448C30.5883 -4.51301 90.7617 -4.51301 90.7617 15.5448C100.791 45.6315 120.848 65.6893 120.848 115.834L110.82 216.123C100.791 266.267 100.791 316.412 100.791 346.499H20.5594C20.5594 316.412 20.5594 266.267 10.5305 216.123L0.501597 115.834C0.501597 65.6893 20.5594 45.6315 30.5883 15.5448Z" fill="#1E1E1E"/>
<path d="M30.5883 15.5448C30.5883 -4.51301 90.7617 -4.51301 90.7617 15.5448C100.791 45.6315 120.848 65.6893 120.848 115.834L110.82 216.123C100.791 266.267 100.791 316.412 100.791 346.499H20.5594C20.5594 316.412 20.5594 266.267 10.5305 216.123L0.501597 115.834C0.501597 65.6893 20.5594 45.6315 30.5883 15.5448V15.5448" stroke="#4D4635" stroke-width="1.00165"/>
</svg>
